<?xml version="1.0" encoding="UTF-8" standalone="no"?>
<svg
   role="img"
   viewBox="0 0 14 14"
   version="1.1"
   id="svg1"
   width="14"
   height="14"
   xmlns="http://www.w3.org/2000/svg"
   xmlns:svg="http://www.w3.org/2000/svg"
   xmlns:rdf="http://www.w3.org/1999/02/22-rdf-syntax-ns#"
   xmlns:cc="http://creativecommons.org/ns#"
   xmlns:dc="http://purl.org/dc/elements/1.1/">
  <defs
     id="defs1" />
  <title
     id="title1">Bluesky</title>
  <path
     d="M 3.0345,1.6665833 C 4.6398333,2.8711667 6.3659166,5.3141666 7,6.6255 7.6340833,5.31475 9.3601666,2.8711667 10.9655,1.6665833 12.123417,0.79683333 14,0.12425 14,2.2650833 c 0,0.427 -0.245,3.591 -0.389083,4.1049167 -0.499334,1.7855833 -2.3205,2.2411666 -3.9404171,1.9658333 C 12.502,8.8176666 13.222417,10.413667 11.666667,12.01025 8.7120833,15.04125 7.42,11.249583 7.08925,10.27775 7.0285833,10.099833 7.0005833,10.016417 7,10.087 7,10.01642 6.970833,10.09983 6.91075,10.27775 6.5794166,11.249583 5.2879166,15.04125 2.3333333,12.01025 0.77758333,10.413667 1.498,8.8176666 4.3295,8.33525 2.7095833,8.6111666 0.88841666,8.1555833 0.38908333,6.37 0.245,5.8566666 0,2.6920833 0,2.2650833 0,0.12425 1.8765833,0.79683333 3.0345,1.6665833"
     id="path1"
     style="stroke-width:1;fill:#59636e;fill-opacity:1" />
  <metadata
     id="metadata1">
    <rdf:RDF>
      <cc:Work
         rdf:about="">
        <dc:title>Bluesky</dc:title>
      </cc:Work>
    </rdf:RDF>
  </metadata>
</svg>
