<?xml version="1.0" encoding="UTF-8" standalone="no"?>
<svg
   role="img"
   viewBox="0 0 14 14"
   version="1.1"
   id="svg1"
   width="14"
   height="14"
   xmlns="http://www.w3.org/2000/svg"
   xmlns:svg="http://www.w3.org/2000/svg"
   xmlns:rdf="http://www.w3.org/1999/02/22-rdf-syntax-ns#"
   xmlns:cc="http://creativecommons.org/ns#"
   xmlns:dc="http://purl.org/dc/elements/1.1/">
  <defs
     id="defs1" />
  <title
     id="title1">Discord</title>
  <path
     d="M 11.85151,2.5490347 A 11.544856,11.544856 0 0 0 9.0018862,1.6651733 0.04322474,0.04322474 0 0 0 8.9560975,1.6868146 C 8.8330141,1.9057383 8.6966903,2.1912782 8.6012575,2.4156853 7.525189,2.2545695 6.4546038,2.2545695 5.4006434,2.4156853 5.3052081,2.1862619 5.1639257,1.9057386 5.040318,1.6868149 A 0.04491639,0.04491639 0 0 0 4.9945267,1.6652313 11.512773,11.512773 0 0 0 2.1448439,2.548976 0.04077475,0.04077475 0 0 0 2.1261189,2.5651346 C 0.31114647,5.2766849 -0.18608388,7.9215607 0.05786465,10.533653 a 0.04806638,0.04806638 0 0 0 0.0181999,0.03272 C 1.273524,11.445797 2.4334754,11.979661 3.5719018,12.33351 a 0.04532473,0.04532473 0 0 0 0.049117,-0.0161 c 0.2692646,-0.367729 0.5093049,-0.755527 0.715162,-1.163273 a 0.04433307,0.04433307 0 0 0 -0.024267,-0.06166 C 3.9311164,10.948051 3.5685768,10.771943 3.219804,10.571978 a 0.04491639,0.04491639 0 0 1 -0.00443,-0.07449 c 0.073383,-0.05501 0.1468242,-0.112174 0.216882,-0.169983 a 0.04334141,0.04334141 0 0 1 0.045267,-0.0061 c 2.2912029,1.046086 4.7716379,1.046086 7.035774,0 a 0.04310807,0.04310807 0 0 1 0.04579,0.0055 c 0.07012,0.05775 0.1435,0.115558 0.217465,0.170566 a 0.04491639,0.04491639 0 0 1 -0.0038,0.07443 7.1741402,7.1741402 0 0 1 -1.0925762,0.519979 0.04468307,0.04468307 0 0 0 -0.023739,0.06224 c 0.2102323,0.407165 0.4502722,0.794963 0.7145792,1.162693 a 0.04433307,0.04433307 0 0 0 0.04912,0.01668 c 1.143909,-0.353907 2.303859,-0.887771 3.501319,-1.76714 a 0.04491639,0.04491639 0 0 0 0.01826,-0.0322 C 14.231554,7.5142799 13.450708,4.891104 11.86971,2.5656596 a 0.03558311,0.03558311 0 0 0 -0.0182,-0.016683 z m -7.1732065,6.394112 c -0.6897875,0 -1.2581841,-0.6333217 -1.2581841,-1.4110753 0,-0.7776953 0.5573716,-1.4110165 1.2582425,-1.4110165 0.7062958,0 1.2691506,0.6388628 1.2581258,1.4110748 0,0.7776953 -0.5573717,1.411017 -1.2581842,1.411017 z m 4.6519388,0 c -0.6897876,0 -1.2581841,-0.6333217 -1.2581841,-1.4110753 0,-0.7776953 0.5573133,-1.4110165 1.2581841,-1.4110165 0.7062957,0 1.2691507,0.6388628 1.2581257,1.4110748 0,0.7776953 -0.55183,1.411017 -1.2581257,1.411017 z"
     id="path1"
     style="fill:#59636e;fill-opacity:1;stroke-width:1" />
  <metadata
     id="metadata1">
    <rdf:RDF>
      <cc:Work
         rdf:about="">
        <dc:title>Discord</dc:title>
      </cc:Work>
    </rdf:RDF>
  </metadata>
</svg>
