<?xml version="1.0" encoding="UTF-8" standalone="no"?>
<svg
   role="img"
   viewBox="0 0 14 14"
   version="1.1"
   id="svg1"
   width="14"
   height="14"
   xmlns="http://www.w3.org/2000/svg"
   xmlns:svg="http://www.w3.org/2000/svg"
   xmlns:rdf="http://www.w3.org/1999/02/22-rdf-syntax-ns#"
   xmlns:cc="http://creativecommons.org/ns#"
   xmlns:dc="http://purl.org/dc/elements/1.1/">
  <defs
     id="defs1" />
  <title
     id="title1">Libera.Chat</title>
  <path
     d="M 8.3209226,1.6105527 7.6035808,7.1126878 6.642015,8.2106718 5.6448717,1.6178735 h -0.00175 a 5.7520815,5.7520815 0 0 0 -0.1161824,0.024774 l -0.039083,0.00733 a 7.052552,7.052552 0 0 0 -0.076755,0.017792 l -0.037683,0.00907 A 7.0293354,7.0293354 0 0 0 4.358827,1.9981715 L 4.3371912,2.0089924 6.3192861,8.5791048 6.2271779,8.6844664 5.2949187,8.2738176 5.2338729,8.3523167 2.0096933,3.5577585 A 6.2397594,6.2397594 0 0 0 1.468553,4.1686829 7.3419434,7.3419434 0 0 0 1.1468682,4.6117825 v 0.00349 L 4.9275357,8.7458855 4.3316146,9.511714 0.12878333,7.0910578 A 6.829258,6.829258 0 0 0 4.1776515e-5,8.4381541 L 3.9980707,9.9405102 3.078709,11.121882 0.5645446,11.133747 a 7.1061486,7.1061486 0 0 0 0.7075652,1.255688 h 0.00175 L 2.2633381,12.171723 H 2.5260595 L 5.3626086,8.5417832 6.2861411,8.9506878 8.2333469,6.7268073 c 1.0789615,1.8345934 2.2420101,3.5995597 3.2995341,5.4466597 h 0.264466 l -0.0048,-0.008 0.94063,0.211435 0.0091,-0.01046 a 6.4344759,6.4344759 0 0 0 0.45182,-0.73269 6.645269,6.645269 0 0 0 0.205497,-0.423214 l -2.209571,-0.03733 -0.7777,-1.2808062 3.58563,-1.3076688 V 8.566591 a 4.047898,4.047898 0 0 0 0.0021,-0.1179324 v -0.182134 l -0.0021,-0.037322 V 8.189736 l -0.0017,-0.039416 -0.0017,-0.039083 -0.0018,-0.039416 -0.0017,-0.039083 -0.0034,-0.037683 -0.0017,-0.039416 -0.0038,-0.039083 -0.0017,-0.039416 -0.0035,-0.037333 -0.0035,-0.039416 -0.0035,-0.039422 -0.0038,-0.039083 -0.0035,-0.037672 a 5.6556216,5.6556216 0 0 0 -0.06594,-0.4643912 v -0.00907 L 10.100998,9.3802133 9.4904233,8.3743375 12.836712,4.5866934 A 6.3040718,6.3040718 0 0 0 12.318946,3.9042115 6.9400154,6.9400154 0 0 0 11.915268,3.4792535 L 9.1586177,7.8279296 8.3585943,6.5104842 9.6142765,1.9873624 9.5821815,1.9751532 A 6.7828189,6.7828189 0 0 0 8.4119751,1.6283444 7.1168644,7.1168644 0 0 0 8.3352201,1.6123027 Z M 8.2281144,7.0537245 6.3346394,9.2242242 5.4111069,8.8400821 2.7957576,12.169629 h 0.2892397 l 2.3937937,-3.0633372 0.9183,0.3803039 1.7989226,-2.0630382 2.8295724,4.7551365 0.278419,-0.0053 z M 8.1851986,7.8129263 6.486411,9.7636204 5.5503135,9.3829724 3.3655104,12.167879 l 7.3704856,0.0038 z"
     id="path1"
     style="stroke-width:1;fill:#59636e;fill-opacity:1" />
  <metadata
     id="metadata1">
    <rdf:RDF>
      <cc:Work
         rdf:about="">
        <dc:title>Libera.Chat</dc:title>
      </cc:Work>
    </rdf:RDF>
  </metadata>
</svg>
