<?xml version="1.0" encoding="UTF-8" standalone="no"?>
<svg
   role="img"
   viewBox="0 0 14 14"
   version="1.1"
   id="svg1"
   width="14"
   height="14"
   xmlns="http://www.w3.org/2000/svg"
   xmlns:svg="http://www.w3.org/2000/svg"
   xmlns:rdf="http://www.w3.org/1999/02/22-rdf-syntax-ns#"
   xmlns:cc="http://creativecommons.org/ns#"
   xmlns:dc="http://purl.org/dc/elements/1.1/">
  <defs
     id="defs1" />
  <title
     id="title1">Mastodon</title>
  <path
     d="M 13.573,3.09925 C 13.368833,1.5954167 12.046417,0.41008333 10.479,0.18025 10.214167,0.14116667 9.2119999,0 6.8909166,0 h -0.0175 C 4.55175,0 4.053,0.14116667 3.78875,0.18025 2.2645,0.40366666 0.87266666,1.4688333 0.53491666,2.99075 0.37333333,3.7403333 0.35583333,4.5715833 0.38558333,5.3334166 0.42875,6.4265833 0.43691666,7.518 0.53725,8.6065 c 0.0688333,0.7233333 0.18958333,1.440833 0.36166666,2.146667 0.32083334,1.304916 1.61991664,2.3905 2.89333334,2.83325 1.3626666,0.462 2.8285833,0.538416 4.2326666,0.221666 0.1545834,-0.03558 0.3074167,-0.077 0.4585,-0.12425 0.34125,-0.107333 0.7408333,-0.2275 1.0348333,-0.43925 A 0.03325,0.03325 0 0 0 9.5316666,13.2195 V 12.16425 A 0.03033333,0.03033333 0 0 0 9.5199999,12.140333 0.03091667,0.03091667 0 0 0 9.4931666,12.1345 11.831167,11.831167 0 0 1 6.74625,12.452417 c -1.5925,0 -2.0200834,-0.749 -2.1431667,-1.0605 A 3.2625833,3.2625833 0 0 1 4.417,10.556 0.03091667,0.03091667 0 0 1 4.4555,10.5245 c 0.8849166,0.21175 1.792,0.3185 2.702,0.3185 0.2193333,0 0.4375,0 0.65625,-0.0058 0.9158333,-0.02567 1.8806666,-0.07233 2.781333,-0.246167 0.02217,-0.0047 0.04492,-0.0087 0.06417,-0.014 1.420417,-0.270667 2.772583,-1.1200001 2.91025,-3.269 0.0047,-0.084583 0.0175,-0.8866667 0.0175,-0.9741667 0.0012,-0.2986667 0.09742,-2.1175 -0.014,-3.2345833 z M 11.386667,8.463 H 9.8927499 V 4.8358333 C 9.8927499,4.07225 9.5719166,3.6831666 8.9185833,3.6831666 8.2010833,3.6831666 7.84175,4.144 7.84175,5.054 V 7.0390833 H 6.3565833 V 5.0534166 c 0,-0.91 -0.3599167,-1.3708333 -1.078,-1.3708333 -0.6486667,0 -0.973,0.3896667 -0.9741667,1.15325 V 8.463 H 2.8128333 V 4.7261666 c 0,-0.7641666 0.1965833,-1.3708333 0.58975,-1.8199999 0.406,-0.4491667 0.938,-0.679 1.5983333,-0.679 0.76475,0 1.3428334,0.2916666 1.7278334,0.8738333 L 7.1009166,3.7193333 7.4730833,3.101 c 0.385,-0.58275 0.9625,-0.8738333 1.7266666,-0.8738333 0.6591667,0 1.1917501,0.2304166 1.5983331,0.679 0.39375,0.4491666 0.590334,1.0558333 0.590334,1.8199999 z"
     id="path1"
     style="stroke-width:1;fill:#59636e;fill-opacity:1" />
  <metadata
     id="metadata1">
    <rdf:RDF>
      <cc:Work
         rdf:about="">
        <dc:title>Mastodon</dc:title>
      </cc:Work>
    </rdf:RDF>
  </metadata>
</svg>
