<?xml version="1.0" encoding="UTF-8" standalone="no"?>
<svg
   role="img"
   viewBox="0 0 14 14"
   version="1.1"
   id="svg1"
   width="14"
   height="14"
   xmlns="http://www.w3.org/2000/svg"
   xmlns:svg="http://www.w3.org/2000/svg"
   xmlns:rdf="http://www.w3.org/1999/02/22-rdf-syntax-ns#"
   xmlns:cc="http://creativecommons.org/ns#"
   xmlns:dc="http://purl.org/dc/elements/1.1/">
  <defs
     id="defs1" />
  <title
     id="title1">Matrix</title>
  <path
     d="M 0.36866666,0.32083333 V 13.679167 H 1.33 V 14 H 0 V 0 H 1.33 V 0.32083333 Z M 4.4770833,4.5558333 V 5.23075 h 0.01925 C 4.6765833,4.9723333 4.89475,4.7734166 5.1479166,4.6334166 5.4005,4.4905 5.6939166,4.4205 6.0229166,4.4205 c 0.315,0 0.6025834,0.062417 0.8639167,0.1831666 C 7.1481666,4.725 7.34475,4.9431666 7.4818333,5.25 7.63,5.0318333 7.8318333,4.8381666 8.085,4.6713333 8.3381666,4.5039166 8.6391666,4.4205 8.9868333,4.4205 c 0.26425,0 0.5086666,0.032667 0.735,0.097417 0.2263333,0.064167 0.4176667,0.1668334 0.5792497,0.3091667 0.161,0.1429167 0.28525,0.3260833 0.376834,0.55475 0.08867,0.2286667 0.134166,0.5034167 0.134166,0.8265833 V 9.5497499 H 9.4418333 V 6.72 c 0,-0.1668334 -0.00583,-0.3260834 -0.018667,-0.4736667 a 1.02375,1.02375 0 0 0 -0.105,-0.385 A 0.64516666,0.64516666 0 0 0 9.0626666,5.6 C 8.9494999,5.5358333 8.7960833,5.5031666 8.60475,5.5031666 c -0.1936667,0 -0.35,0.037333 -0.4684167,0.11025 a 0.805,0.805 0 0 0 -0.28,0.2910834 1.1351667,1.1351667 0 0 0 -0.13475,0.406 3.2433333,3.2433333 0 0 0 -0.035,0.4579166 V 9.5497499 H 6.31575 V 6.74975 c 0,-0.1481667 -0.00233,-0.2934167 -0.0105,-0.4386667 A 1.2098333,1.2098333 0 0 0 6.2218333,5.90975 0.61366666,0.61366666 0 0 0 5.97975,5.6163333 C 5.8665833,5.5434166 5.7020833,5.5055 5.4815833,5.5055 5.4168333,5.5055 5.3305,5.5195 5.2255,5.548667 5.1205,5.578417 5.0155,5.632084 4.9163333,5.713167 4.8165833,5.7936666 4.73025,5.90975 4.66025,6.06025 c -0.07,0.1510833 -0.105,0.35 -0.105,0.595 V 9.5520833 H 3.185 v -4.99625 z M 13.631333,13.679167 V 0.32083333 H 12.67 V 0 H 14 v 14 h -1.33 v -0.320833 z"
     id="path1"
     style="stroke-width:1;fill:#59636e;fill-opacity:1" />
  <metadata
     id="metadata1">
    <rdf:RDF>
      <cc:Work
         rdf:about="">
        <dc:title>Matrix</dc:title>
      </cc:Work>
    </rdf:RDF>
  </metadata>
</svg>
