<?xml version="1.0" encoding="UTF-8" standalone="no"?>
<svg
   xml:space="preserve"
   viewBox="0 0 14.000001 14.000001"
   role="presentation"
   version="1.1"
   id="svg1"
   width="14"
   height="14"
   xmlns="http://www.w3.org/2000/svg"
   xmlns:svg="http://www.w3.org/2000/svg"><defs
   id="defs1" />
  <path
   d="M 7.0537675,0 C 5.8551678,0 4.8782553,0.97660233 4.8782553,2.175202 c 0,1.1983929 0.9769125,2.1752021 2.1755122,2.1752021 0.4797708,0 0.9196296,-0.1615091 1.2798712,-0.4261068 L 10.093694,5.6980015 C 9.8188601,6.0622757 9.6495961,6.5100963 9.6495961,7.0000001 c 0,0.512755 0.186118,0.9785669 0.4845269,1.3510096 L 8.3660026,10.10238 C 7.9999706,9.8224791 7.5485311,9.6495961 7.0537675,9.6494927 c -1.0985096,0 -2.0011817,0.8233653 -2.1457333,1.8831003 H 4.3209354 C 4.1762804,10.472858 3.2736082,9.6495961 2.175202,9.6495961 0.97670573,9.6495961 0,10.626302 0,11.824798 0,13.023294 0.97670573,14 2.175202,14 3.3104182,14 4.2359415,13.1208 4.3315855,12.009779 H 4.8971773 C 4.9928212,13.1208 5.9185513,14 7.0537675,14 c 1.1983929,0 2.1749952,-0.976706 2.1749952,-2.175202 0,-0.53178 -0.1997666,-1.013516 -0.5184419,-1.392059 L 10.471307,8.6885036 A 2.1510067,2.1510067 0 0 0 11.547379,9.147181 V 9.6776172 C 10.480613,9.8158615 9.6495961,10.721325 9.6495961,11.824798 9.6495961,13.023294 10.626302,14 11.824798,14 13.023294,14 14,13.023294 14,11.824798 14,10.694649 13.128348,9.772434 12.024358,9.6697589 V 9.1550393 C 13.128451,9.0523643 14,8.1302531 14,7.0000001 c 0,-1.1984963 -0.976706,-2.175202 -2.175202,-2.175202 -0.53664,0 -1.022615,0.2031788 -1.402502,0.527024 L 8.6836439,3.5995215 C 9.0186562,3.2167388 9.2287627,2.7219753 9.2287627,2.175202 9.2287627,0.97670573 8.2522638,0 7.0537675,0 Z m 0,0.47697899 A 1.6945007,1.6945007 0 0 1 8.7516804,2.175202 1.6943973,1.6943973 0 0 1 7.0537675,3.8732183 1.6945007,1.6945007 0 0 1 5.3555445,2.175202 1.6947075,1.6947075 0 0 1 7.0537675,0.47697899 Z M 11.824798,5.3017771 a 1.6947075,1.6947075 0 0 1 1.698223,1.698223 1.6945007,1.6945007 0 0 1 -1.698223,1.6980162 1.6942939,1.6942939 0 0 1 -1.698016,-1.6980162 1.6946041,1.6946041 0 0 1 1.698016,-1.698223 z M 2.175202,10.126782 A 1.6943973,1.6943973 0 0 1 3.8732183,11.824798 1.6942939,1.6942939 0 0 1 2.175202,13.522814 1.6942939,1.6942939 0 0 1 0.47718579,11.824798 1.6942939,1.6942939 0 0 1 2.175202,10.126782 Z m 4.8785655,0 a 1.6943973,1.6943973 0 0 1 1.6979129,1.698016 1.6942939,1.6942939 0 0 1 -1.6979129,1.698016 1.6945007,1.6945007 0 0 1 -1.698223,-1.698016 1.6945007,1.6945007 0 0 1 1.698223,-1.698016 z m 4.7710305,0 a 1.6945007,1.6945007 0 0 1 1.698223,1.698016 1.6945007,1.6945007 0 0 1 -1.698223,1.698016 1.6942939,1.6942939 0 0 1 -1.698016,-1.698016 1.6943973,1.6943973 0 0 1 1.698016,-1.698016 z"
   color=""
   style="stroke-width:1;-inkscape-stroke:none;fill:#59636e;fill-opacity:1"
   id="path1" />
</svg>
