<?xml version="1.0" encoding="UTF-8" standalone="no"?>
<svg
   role="img"
   viewBox="0 0 14 14"
   version="1.1"
   id="svg1"
   width="14"
   height="14"
   xmlns="http://www.w3.org/2000/svg"
   xmlns:svg="http://www.w3.org/2000/svg"
   xmlns:rdf="http://www.w3.org/1999/02/22-rdf-syntax-ns#"
   xmlns:cc="http://creativecommons.org/ns#"
   xmlns:dc="http://purl.org/dc/elements/1.1/">
  <defs
     id="defs1" />
  <title
     id="title1">Telegram</title>
  <path
     d="M 6.9673333,-1.361113e-5 A 7,7 0 0 0 0,6.9999863 7,7 0 0 0 7,13.999986 7,7 0 0 0 14,6.9999863 7,7 0 0 0 7,-1.361113e-5 a 7,7 0 0 0 -0.032667,0 z M 9.8618333,4.2139864 c 0.058333,-0.00117 0.1872497,0.013417 0.2712497,0.081667 a 0.29516666,0.29516666 0 0 1 0.09975,0.1895834 c 0.0093,0.05425 0.021,0.1785 0.01167,0.2753333 C 10.1395,5.8677364 9.6833333,8.553403 9.4511666,9.7929863 9.3531666,10.317986 9.1600833,10.49357 8.9728333,10.510486 8.5668333,10.548403 8.25825,10.242153 7.8645,9.9843197 c -0.616,-0.40425 -0.96425,-0.6556667 -1.5621667,-1.05 -0.69125,-0.455 -0.24325,-0.7058334 0.1505,-1.1141667 0.10325,-0.1073333 1.8940833,-1.7365833 1.9290833,-1.8841666 0.00408,-0.018667 0.00817,-0.0875 -0.032667,-0.1236667 -0.040833,-0.036167 -0.1015,-0.023917 -0.14525,-0.014 -0.061833,0.014 -1.0459167,0.665 -2.95225,1.95125 -0.28,0.1925 -0.5325834,0.2858333 -0.7595,0.28 C 4.2425833,8.024903 3.7619166,7.8889863 3.4043333,7.772903 2.9656666,7.6299863 2.6174167,7.5547363 2.64775,7.312653 c 0.01575,-0.126 0.1895833,-0.2549167 0.5209166,-0.38675 2.0405,-0.889 3.4008334,-1.47525 4.0821667,-1.7581666 1.9436666,-0.8085 2.3479166,-0.9490834 2.611,-0.95375 z"
     id="path1"
     style="stroke-width:1;fill:#59636e;fill-opacity:1" />
  <metadata
     id="metadata1">
    <rdf:RDF>
      <cc:Work
         rdf:about="">
        <dc:title>Telegram</dc:title>
      </cc:Work>
    </rdf:RDF>
  </metadata>
</svg>
